<svg class="svg-icon" style="width: 1em; height: 1em;vertical-align: middle;fill: currentColor;overflow: hidden;" viewBox="0 0 1024 1024" version="1.1" xmlns="http://www.w3.org/2000/svg"><path d="M755.626667 481.706667l-213.333334-213.333334a42.666667 42.666667 0 0 0-14.08-8.96 42.666667 42.666667 0 0 0-32.426666 0 42.666667 42.666667 0 0 0-14.08 8.96l-213.333334 213.333334a42.666667 42.666667 0 0 0 60.586667 60.586666L469.333333 401.493333V725.333333a42.666667 42.666667 0 0 0 85.333334 0V401.493333l140.373333 140.8a42.666667 42.666667 0 0 0 60.586667 0 42.666667 42.666667 0 0 0 0-60.586666z"  /></svg>